<svg xmlns="http://www.w3.org/2000/svg" viewBox="0 0 400 300" width="400" height="300" style="font-family: -apple-system, BlinkMacSystemFont, 'Segoe UI', Helvetica, Arial, sans-serif; background: #ffffff;">
<title>Assertion Breakdown</title>
<text x="160" y="24" text-anchor="middle" font-size="16" font-weight="bold" fill="#1e293b">Assertion Breakdown</text>
<path d="M 160.0 50.0 A 100 100 0 0 1 183.9 247.1 L 174.3 208.3 A 60 60 0 0 0 160.0 90.0 Z" fill="#2563eb" opacity="0.85"/>
<path d="M 183.9 247.1 A 100 100 0 1 1 149.9 50.5 L 153.9 90.3 A 60 60 0 1 0 174.3 208.3 Z" fill="#9333ea" opacity="0.85"/>
<path d="M 149.9 50.5 A 100 100 0 0 1 155.6 50.1 L 157.4 90.1 A 60 60 0 0 0 153.9 90.3 Z" fill="#16a34a" opacity="0.85"/>
<path d="M 155.6 50.1 A 100 100 0 0 1 159.8 50.0 L 159.9 90.0 A 60 60 0 0 0 157.4 90.1 Z" fill="#d97706" opacity="0.85"/>
<path d="M 159.8 50.0 A 100 100 0 0 1 160.0 50.0 L 160.0 90.0 A 60 60 0 0 0 159.9 90.0 Z" fill="#dc2626" opacity="0.85"/>
<text x="160" y="146" text-anchor="middle" font-size="20" font-weight="bold" fill="#1e293b">296,841</text>
<text x="160" y="164" text-anchor="middle" font-size="11" fill="#6b7280">total</text>
<rect x="290" y="72" width="12" height="12" rx="2" fill="#2563eb" opacity="0.85"/>
<text x="308" y="82" font-size="12" fill="#374151">SEED</text>
<text x="308" y="96" font-size="10" fill="#9ca3af">137,032 (46.2%)</text>
<rect x="290" y="96" width="12" height="12" rx="2" fill="#9333ea" opacity="0.85"/>
<text x="308" y="106" font-size="12" fill="#374151">STRUCT</text>
<text x="308" y="120" font-size="10" fill="#9ca3af">155,014 (52.2%)</text>
<rect x="290" y="120" width="12" height="12" rx="2" fill="#16a34a" opacity="0.85"/>
<text x="308" y="130" font-size="12" fill="#374151">FND (required)</text>
<text x="308" y="144" font-size="10" fill="#9ca3af">2,731 (0.9%)</text>
<rect x="290" y="144" width="12" height="12" rx="2" fill="#d97706" opacity="0.85"/>
<text x="308" y="154" font-size="12" fill="#374151">FND (aspirational)</text>
<text x="308" y="168" font-size="10" fill="#9ca3af">1,987 (0.7%)</text>
<rect x="290" y="168" width="12" height="12" rx="2" fill="#dc2626" opacity="0.85"/>
<text x="308" y="178" font-size="12" fill="#374151">BUGFIX</text>
<text x="308" y="192" font-size="10" fill="#9ca3af">77 (0.0%)</text>
</svg>
