<svg xmlns="http://www.w3.org/2000/svg" viewBox="0 0 500 240" width="500" height="240" style="font-family: -apple-system, BlinkMacSystemFont, 'Segoe UI', Helvetica, Arial, sans-serif; background: #ffffff;">
<title>Corpus Complexity</title>
<text x="250" y="24" text-anchor="middle" font-size="16" font-weight="bold" fill="#1e293b">Corpus Complexity Distribution</text>
<text x="250" y="42" text-anchor="middle" font-size="11" fill="#9ca3af">repos by total analyzer output size</text>
<rect x="93.0" y="206.0" width="50.0" height="0.0" rx="3" fill="#dbeafe" stroke="#2563eb" stroke-width="0.5"/>
<text x="118.0" y="220" text-anchor="middle" font-size="9" fill="#374151">&lt;10KB</text>
<rect x="147.0" y="198.4" width="50.0" height="7.6" rx="3" fill="#93c5fd" stroke="#2563eb" stroke-width="0.5"/>
<text x="172.0" y="220" text-anchor="middle" font-size="9" fill="#374151">10-50KB</text>
<text x="172.0" y="194.4" text-anchor="middle" font-size="10" font-weight="600" fill="#2563eb">20</text>
<rect x="201.0" y="147.8" width="50.0" height="58.2" rx="3" fill="#60a5fa" stroke="#2563eb" stroke-width="0.5"/>
<text x="226.0" y="220" text-anchor="middle" font-size="9" fill="#374151">50-200KB</text>
<text x="226.0" y="143.8" text-anchor="middle" font-size="10" font-weight="600" fill="#2563eb">153</text>
<rect x="255.0" y="62.9" width="50.0" height="143.1" rx="3" fill="#3b82f6" stroke="#2563eb" stroke-width="0.5"/>
<text x="280.0" y="220" text-anchor="middle" font-size="9" fill="#374151">200KB-1MB</text>
<text x="280.0" y="58.9" text-anchor="middle" font-size="10" font-weight="600" fill="#2563eb">376</text>
<rect x="309.0" y="56.0" width="50.0" height="150.0" rx="3" fill="#2563eb" stroke="#2563eb" stroke-width="0.5"/>
<text x="334.0" y="220" text-anchor="middle" font-size="9" fill="#374151">1-10MB</text>
<text x="334.0" y="52.0" text-anchor="middle" font-size="10" font-weight="600" fill="#2563eb">394</text>
<rect x="363.0" y="174.0" width="50.0" height="32.0" rx="3" fill="#1d4ed8" stroke="#2563eb" stroke-width="0.5"/>
<text x="388.0" y="220" text-anchor="middle" font-size="9" fill="#374151">10-100MB</text>
<text x="388.0" y="170.0" text-anchor="middle" font-size="10" font-weight="600" fill="#2563eb">84</text>
<rect x="417.0" y="203.0" width="50.0" height="3.0" rx="3" fill="#1e3a8a" stroke="#2563eb" stroke-width="0.5"/>
<text x="442.0" y="220" text-anchor="middle" font-size="9" fill="#374151">&gt;100MB</text>
<text x="442.0" y="199.0" text-anchor="middle" font-size="10" font-weight="600" fill="#2563eb">8</text>
</svg>
