<svg xmlns="http://www.w3.org/2000/svg" viewBox="0 0 600 300" width="600" height="300" style="font-family: -apple-system, BlinkMacSystemFont, 'Segoe UI', Helvetica, Arial, sans-serif; background: #ffffff;">
<title>Corpus Pipeline</title>
<text x="300" y="28" text-anchor="middle" font-size="16" font-weight="bold" fill="#1e293b">Corpus Pipeline</text>
<text x="172" y="71" text-anchor="end" font-size="13" fill="#374151">Repos in repos.md</text>
<rect x="180" y="50" width="380" height="32" rx="4" fill="#475569" opacity="0.85"/>
<text x="568.0" y="71" font-size="13" font-weight="600" fill="#475569">1,043</text>
<text x="172" y="111" text-anchor="end" font-size="13" fill="#374151">Checked out</text>
<rect x="180" y="90" width="377" height="32" rx="4" fill="#2563eb" opacity="0.85"/>
<text x="565.0853307766059" y="111" font-size="13" font-weight="600" fill="#2563eb">1,035</text>
<text x="172" y="151" text-anchor="end" font-size="13" fill="#374151">With baselines</text>
<rect x="180" y="130" width="377" height="32" rx="4" fill="#4f46e5" opacity="0.85"/>
<text x="565.0853307766059" y="151" font-size="13" font-weight="600" fill="#4f46e5">1,035</text>
<text x="172" y="191" text-anchor="end" font-size="13" fill="#374151">With assertions</text>
<rect x="180" y="170" width="377" height="32" rx="4" fill="#9333ea" opacity="0.85"/>
<text x="565.0853307766059" y="191" font-size="13" font-weight="600" fill="#9333ea">1,035</text>
<text x="172" y="231" text-anchor="end" font-size="13" fill="#374151">With findings</text>
<rect x="180" y="210" width="330" height="32" rx="4" fill="#16a34a" opacity="0.85"/>
<text x="517.7219558964525" y="231" font-size="13" font-weight="600" fill="#16a34a">905</text>
<text x="100" y="270" text-anchor="middle" font-size="24" font-weight="bold" fill="#1e293b">296,841</text>
<text x="100" y="290" text-anchor="middle" font-size="12" fill="#6b7280">assertions</text>
<text x="300" y="270" text-anchor="middle" font-size="24" font-weight="bold" fill="#1e293b">100%</text>
<text x="300" y="290" text-anchor="middle" font-size="12" fill="#6b7280">pass rate</text>
<text x="500" y="270" text-anchor="middle" font-size="24" font-weight="bold" fill="#1e293b">2,575</text>
<text x="500" y="290" text-anchor="middle" font-size="12" fill="#6b7280">findings</text>
</svg>
