<svg xmlns="http://www.w3.org/2000/svg" viewBox="0 0 700 408" width="700" height="408" style="font-family: -apple-system, BlinkMacSystemFont, 'Segoe UI', Helvetica, Arial, sans-serif; background: #ffffff;">
<title>EMC Findings by Category</title>
<text x="350" y="24" text-anchor="middle" font-size="16" font-weight="bold" fill="#1e293b">EMC Findings by Category</text>
<text x="132" y="55" text-anchor="end" font-size="11" fill="#374151">ground_plane</text>
<rect x="140" y="40" width="480.0" height="22" rx="3" fill="#dc2626" opacity="0.8"/>
<text x="626.0" y="55" font-size="11" fill="#6b7280">110,538</text>
<text x="132" y="81" text-anchor="end" font-size="11" fill="#374151">io_filtering</text>
<rect x="140" y="66" width="88.6" height="22" rx="3" fill="#ea580c" opacity="0.8"/>
<text x="234.61531780926015" y="81" font-size="11" fill="#6b7280">20,407</text>
<text x="132" y="107" text-anchor="end" font-size="11" fill="#374151">decoupling</text>
<rect x="140" y="92" width="49.4" height="22" rx="3" fill="#d97706" opacity="0.8"/>
<text x="195.39477826629758" y="107" font-size="11" fill="#6b7280">11,375</text>
<text x="132" y="133" text-anchor="end" font-size="11" fill="#374151">clock_routing</text>
<rect x="140" y="118" width="26.3" height="22" rx="3" fill="#9333ea" opacity="0.8"/>
<text x="172.32795961569778" y="133" font-size="11" fill="#6b7280">6,063</text>
<text x="132" y="159" text-anchor="end" font-size="11" fill="#374151">board_edge</text>
<rect x="140" y="144" width="13.9" height="22" rx="3" fill="#0d9488" opacity="0.8"/>
<text x="159.90435868208218" y="159" font-size="11" fill="#6b7280">3,202</text>
<text x="132" y="185" text-anchor="end" font-size="11" fill="#374151">stackup</text>
<rect x="140" y="170" width="7.3" height="22" rx="3" fill="#4f46e5" opacity="0.8"/>
<text x="153.29957118818868" y="185" font-size="11" fill="#6b7280">1,681</text>
<text x="132" y="211" text-anchor="end" font-size="11" fill="#374151">diff_pair</text>
<rect x="140" y="196" width="6.2" height="22" rx="3" fill="#0891b2" opacity="0.8"/>
<text x="152.20528686967378" y="211" font-size="11" fill="#6b7280">1,429</text>
<text x="132" y="237" text-anchor="end" font-size="11" fill="#374151">via_stitching</text>
<rect x="140" y="222" width="4.0" height="22" rx="3" fill="#2563eb" opacity="0.8"/>
<text x="149.9689518536612" y="237" font-size="11" fill="#6b7280">914</text>
<text x="132" y="263" text-anchor="end" font-size="11" fill="#374151">esd_path</text>
<rect x="140" y="248" width="3.3" height="22" rx="3" fill="#db2777" opacity="0.8"/>
<text x="149.31759214025945" y="263" font-size="11" fill="#6b7280">764</text>
<text x="132" y="289" text-anchor="end" font-size="11" fill="#374151">switching_emc</text>
<rect x="140" y="274" width="3.1" height="22" rx="3" fill="#16a34a" opacity="0.8"/>
<text x="149.05704825489877" y="289" font-size="11" fill="#6b7280">704</text>
<text x="132" y="315" text-anchor="end" font-size="11" fill="#374151">thermal_emc</text>
<rect x="140" y="300" width="1.0" height="22" rx="3" fill="#475569" opacity="0.8"/>
<text x="147" y="315" font-size="11" fill="#6b7280">222</text>
<text x="132" y="341" text-anchor="end" font-size="11" fill="#374151">pdn</text>
<rect x="140" y="326" width="1.0" height="22" rx="3" fill="#6b7280" opacity="0.8"/>
<text x="147" y="341" font-size="11" fill="#6b7280">178</text>
<text x="132" y="367" text-anchor="end" font-size="11" fill="#374151">emi_filter</text>
<rect x="140" y="352" width="1.0" height="22" rx="3" fill="#ea580c" opacity="0.8"/>
<text x="147" y="367" font-size="11" fill="#6b7280">24</text>
</svg>
