<svg xmlns="http://www.w3.org/2000/svg" viewBox="0 0 400 300" width="400" height="300" style="font-family: -apple-system, BlinkMacSystemFont, 'Segoe UI', Helvetica, Arial, sans-serif; background: #ffffff;">
<title>EMC Finding Severity</title>
<text x="160" y="24" text-anchor="middle" font-size="16" font-weight="bold" fill="#1e293b">EMC Finding Severity</text>
<path d="M 160.0 50.0 A 100 100 0 0 1 195.5 243.5 L 181.3 206.1 A 60 60 0 0 0 160.0 90.0 Z" fill="#dc2626" opacity="0.85"/>
<path d="M 195.5 243.5 A 100 100 0 0 1 70.5 194.6 L 106.3 176.8 A 60 60 0 0 0 181.3 206.1 Z" fill="#ea580c" opacity="0.85"/>
<path d="M 70.5 194.6 A 100 100 0 0 1 91.7 77.0 L 119.0 106.2 A 60 60 0 0 0 106.3 176.8 Z" fill="#d97706" opacity="0.85"/>
<path d="M 91.7 77.0 A 100 100 0 0 1 160.0 50.0 L 160.0 90.0 A 60 60 0 0 0 119.0 106.2 Z" fill="#2563eb" opacity="0.85"/>
<text x="160" y="146" text-anchor="middle" font-size="18" font-weight="bold" fill="#1e293b">157,501</text>
<text x="160" y="164" text-anchor="middle" font-size="11" fill="#6b7280">findings</text>
<rect x="290" y="62" width="12" height="12" rx="2" fill="#dc2626" opacity="0.85"/>
<text x="308" y="72" font-size="12" fill="#374151">Critical</text>
<text x="308" y="86" font-size="10" fill="#9ca3af">69,649 (44.2%)</text>
<rect x="290" y="86" width="12" height="12" rx="2" fill="#ea580c" opacity="0.85"/>
<text x="308" y="96" font-size="12" fill="#374151">High</text>
<text x="308" y="110" font-size="10" fill="#9ca3af">36,884 (23.4%)</text>
<rect x="290" y="110" width="12" height="12" rx="2" fill="#d97706" opacity="0.85"/>
<text x="308" y="120" font-size="12" fill="#374151">Medium</text>
<text x="308" y="134" font-size="10" fill="#9ca3af">32,106 (20.4%)</text>
<rect x="290" y="134" width="12" height="12" rx="2" fill="#2563eb" opacity="0.85"/>
<text x="308" y="144" font-size="12" fill="#374151">Low</text>
<text x="308" y="158" font-size="10" fill="#9ca3af">18,862 (12.0%)</text>
<text x="160" y="290" text-anchor="middle" font-size="10" fill="#9ca3af">6,853 files, 0 errors</text>
</svg>
