<svg xmlns="http://www.w3.org/2000/svg" viewBox="0 0 500 260" width="500" height="260" style="font-family: -apple-system, BlinkMacSystemFont, 'Segoe UI', Helvetica, Arial, sans-serif; background: #ffffff;">
<title>Findings Per Repo</title>
<text x="250" y="24" text-anchor="middle" font-size="16" font-weight="bold" fill="#1e293b">Findings Distribution</text>
<line x1="50" y1="220" x2="480" y2="220" stroke="#e5e7eb" stroke-width="1"/>
<text x="44" y="224" text-anchor="end" font-size="10" fill="#9ca3af">0</text>
<line x1="50" y1="176" x2="480" y2="176" stroke="#e5e7eb" stroke-width="1"/>
<text x="44" y="180" text-anchor="end" font-size="10" fill="#9ca3af">69</text>
<line x1="50" y1="132" x2="480" y2="132" stroke="#e5e7eb" stroke-width="1"/>
<text x="44" y="136" text-anchor="end" font-size="10" fill="#9ca3af">139</text>
<line x1="50" y1="88" x2="480" y2="88" stroke="#e5e7eb" stroke-width="1"/>
<text x="44" y="92" text-anchor="end" font-size="10" fill="#9ca3af">208</text>
<line x1="50" y1="44" x2="480" y2="44" stroke="#e5e7eb" stroke-width="1"/>
<text x="44" y="48" text-anchor="end" font-size="10" fill="#9ca3af">278</text>
<rect x="50.0" y="137.1" width="35.1" height="82.9" rx="3" fill="#6b7280" opacity="0.8"/>
<text x="67.5" y="236" text-anchor="middle" font-size="11" fill="#374151">0</text>
<text x="67.5" y="133.1" text-anchor="middle" font-size="10" font-weight="600" fill="#6b7280">131</text>
<rect x="89.5" y="55.4" width="35.1" height="164.6" rx="3" fill="#2563eb" opacity="0.8"/>
<text x="107.0" y="236" text-anchor="middle" font-size="11" fill="#374151">1</text>
<text x="107.0" y="51.4" text-anchor="middle" font-size="10" font-weight="600" fill="#2563eb">260</text>
<rect x="129.0" y="44.0" width="35.1" height="176.0" rx="3" fill="#2563eb" opacity="0.8"/>
<text x="146.5" y="236" text-anchor="middle" font-size="11" fill="#374151">2</text>
<text x="146.5" y="40.0" text-anchor="middle" font-size="10" font-weight="600" fill="#2563eb">278</text>
<rect x="168.5" y="114.9" width="35.1" height="105.1" rx="3" fill="#2563eb" opacity="0.8"/>
<text x="186.0" y="236" text-anchor="middle" font-size="11" fill="#374151">3</text>
<text x="186.0" y="110.9" text-anchor="middle" font-size="10" font-weight="600" fill="#2563eb">166</text>
<rect x="208.0" y="168.7" width="35.1" height="51.3" rx="3" fill="#2563eb" opacity="0.8"/>
<text x="225.5" y="236" text-anchor="middle" font-size="11" fill="#374151">4</text>
<text x="225.5" y="164.7" text-anchor="middle" font-size="10" font-weight="600" fill="#2563eb">81</text>
<rect x="247.5" y="196.6" width="35.1" height="23.4" rx="3" fill="#2563eb" opacity="0.8"/>
<text x="265.0" y="236" text-anchor="middle" font-size="11" fill="#374151">5</text>
<text x="265.0" y="192.6" text-anchor="middle" font-size="10" font-weight="600" fill="#2563eb">37</text>
<rect x="286.9" y="206.7" width="35.1" height="13.3" rx="3" fill="#2563eb" opacity="0.8"/>
<text x="304.5" y="236" text-anchor="middle" font-size="11" fill="#374151">6</text>
<text x="304.5" y="202.7" text-anchor="middle" font-size="10" font-weight="600" fill="#2563eb">21</text>
<rect x="326.4" y="208.0" width="35.1" height="12.0" rx="3" fill="#2563eb" opacity="0.8"/>
<text x="344.0" y="236" text-anchor="middle" font-size="11" fill="#374151">7</text>
<text x="344.0" y="204.0" text-anchor="middle" font-size="10" font-weight="600" fill="#2563eb">19</text>
<rect x="365.9" y="213.0" width="35.1" height="7.0" rx="3" fill="#2563eb" opacity="0.8"/>
<text x="383.5" y="236" text-anchor="middle" font-size="11" fill="#374151">8</text>
<text x="383.5" y="209.0" text-anchor="middle" font-size="10" font-weight="600" fill="#2563eb">11</text>
<rect x="405.4" y="213.0" width="35.1" height="7.0" rx="3" fill="#2563eb" opacity="0.8"/>
<text x="423.0" y="236" text-anchor="middle" font-size="11" fill="#374151">9</text>
<text x="423.0" y="209.0" text-anchor="middle" font-size="10" font-weight="600" fill="#2563eb">11</text>
<rect x="444.9" y="206.7" width="35.1" height="13.3" rx="3" fill="#2563eb" opacity="0.8"/>
<text x="462.5" y="236" text-anchor="middle" font-size="11" fill="#374151">10+</text>
<text x="462.5" y="202.7" text-anchor="middle" font-size="10" font-weight="600" fill="#2563eb">21</text>
<text x="250" y="256" text-anchor="middle" font-size="11" fill="#6b7280">findings per repo</text>
</svg>
