<svg xmlns="http://www.w3.org/2000/svg" viewBox="0 0 400 200" width="400" height="200" style="font-family: -apple-system, BlinkMacSystemFont, 'Segoe UI', Helvetica, Arial, sans-serif; background: #ffffff;">
<title>Issue Tracker</title>
<text x="200" y="28" text-anchor="middle" font-size="16" font-weight="bold" fill="#1e293b">Issue Tracker</text>
<text x="66" y="72" text-anchor="middle" font-size="32" font-weight="bold" fill="#16a34a">0</text>
<text x="66" y="92" text-anchor="middle" font-size="12" fill="#6b7280">open</text>
<text x="199" y="72" text-anchor="middle" font-size="32" font-weight="bold" fill="#2563eb">182</text>
<text x="199" y="92" text-anchor="middle" font-size="12" fill="#6b7280">KH-* closed</text>
<text x="332" y="72" text-anchor="middle" font-size="32" font-weight="bold" fill="#9333ea">7</text>
<text x="332" y="92" text-anchor="middle" font-size="12" fill="#6b7280">TH-* closed</text>
<text x="200" y="114" text-anchor="middle" font-size="11" fill="#6b7280">Closed issues by severity</text>
<rect x="40.0" y="120" width="11.4" height="28" fill="#dc2626" opacity="0.8"/>
<rect x="51.4" y="120" width="72.0" height="28" fill="#ea580c" opacity="0.8"/>
<text x="87.3" y="138.0" text-anchor="middle" font-size="10" font-weight="600" fill="white">38</text>
<rect x="123.3" y="120" width="151.5" height="28" fill="#d97706" opacity="0.8"/>
<text x="199.1" y="138.0" text-anchor="middle" font-size="10" font-weight="600" fill="white">80</text>
<rect x="274.8" y="120" width="85.2" height="28" fill="#0891b2" opacity="0.8"/>
<text x="317.4" y="138.0" text-anchor="middle" font-size="10" font-weight="600" fill="white">45</text>
<rect x="40" y="120" width="320" height="28" rx="4" fill="none" stroke="#e5e7eb" stroke-width="1"/>
<rect x="40" y="158" width="10" height="10" rx="2" fill="#dc2626"/>
<text x="54" y="167" font-size="10" fill="#374151">CRITICAL (6)</text>
<rect x="140" y="158" width="10" height="10" rx="2" fill="#ea580c"/>
<text x="154" y="167" font-size="10" fill="#374151">HIGH (38)</text>
<rect x="240" y="158" width="10" height="10" rx="2" fill="#d97706"/>
<text x="254" y="167" font-size="10" fill="#374151">MEDIUM (80)</text>
<rect x="340" y="158" width="10" height="10" rx="2" fill="#0891b2"/>
<text x="354" y="167" font-size="10" fill="#374151">LOW (45)</text>
</svg>
