<svg xmlns="http://www.w3.org/2000/svg" viewBox="0 0 600 420" width="600" height="420" style="font-family: -apple-system, BlinkMacSystemFont, 'Segoe UI', Helvetica, Arial, sans-serif; background: #ffffff;">
<title>Signal Detector Coverage</title>
<text x="300" y="24" text-anchor="middle" font-size="16" font-weight="bold" fill="#1e293b">Signal Detector Coverage</text>
<text x="300" y="42" text-anchor="middle" font-size="11" fill="#9ca3af">repos with at least one detection (of 1,035 total)</text>
<text x="192" y="72" text-anchor="end" font-size="11" fill="#374151">Design Observations</text>
<rect x="200" y="58" width="340" height="20" rx="3" fill="#2563eb" opacity="0.75"/>
<text x="546.0" y="72" font-size="10" fill="#2563eb">898 (87%)</text>
<text x="192" y="96" text-anchor="end" font-size="11" fill="#374151">Decoupling Analysis</text>
<rect x="200" y="82" width="271" height="20" rx="3" fill="#2563eb" opacity="0.75"/>
<text x="477.4699331848552" y="96" font-size="10" fill="#2563eb">717 (69%)</text>
<text x="192" y="120" text-anchor="end" font-size="11" fill="#374151">Power Regulators</text>
<rect x="200" y="106" width="210" height="20" rx="3" fill="#2563eb" opacity="0.75"/>
<text x="416.13363028953233" y="120" font-size="10" fill="#2563eb">555 (54%)</text>
<text x="192" y="144" text-anchor="end" font-size="11" fill="#374151">Rc Filters</text>
<rect x="200" y="130" width="184" height="20" rx="3" fill="#2563eb" opacity="0.75"/>
<text x="390.00890868596883" y="144" font-size="10" fill="#2563eb">486 (47%)</text>
<text x="192" y="168" text-anchor="end" font-size="11" fill="#374151">Transistor Circuits</text>
<rect x="200" y="154" width="153" height="20" rx="3" fill="#2563eb" opacity="0.75"/>
<text x="358.58351893095767" y="168" font-size="10" fill="#2563eb">403 (39%)</text>
<text x="192" y="192" text-anchor="end" font-size="11" fill="#374151">Voltage Dividers</text>
<rect x="200" y="178" width="141" height="20" rx="3" fill="#2563eb" opacity="0.75"/>
<text x="347.22494432071267" y="192" font-size="10" fill="#2563eb">373 (36%)</text>
<text x="192" y="216" text-anchor="end" font-size="11" fill="#374151">Protection Devices</text>
<rect x="200" y="202" width="135" height="20" rx="3" fill="#2563eb" opacity="0.75"/>
<text x="341.16703786191533" y="216" font-size="10" fill="#2563eb">357 (34%)</text>
<text x="192" y="240" text-anchor="end" font-size="11" fill="#374151">Crystal Circuits</text>
<rect x="200" y="226" width="134" height="20" rx="3" fill="#2563eb" opacity="0.75"/>
<text x="340.4097995545657" y="240" font-size="10" fill="#2563eb">355 (34%)</text>
<text x="192" y="264" text-anchor="end" font-size="11" fill="#374151">Lc Filters</text>
<rect x="200" y="250" width="66" height="20" rx="3" fill="#2563eb" opacity="0.75"/>
<text x="271.87973273942094" y="264" font-size="10" fill="#2563eb">174 (17%)</text>
<text x="192" y="288" text-anchor="end" font-size="11" fill="#374151">Opamp Circuits</text>
<rect x="200" y="274" width="46" height="20" rx="3" fill="#2563eb" opacity="0.75"/>
<text x="252.1915367483296" y="288" font-size="10" fill="#2563eb">122 (12%)</text>
<text x="192" y="312" text-anchor="end" font-size="11" fill="#374151">Key Matrices</text>
<rect x="200" y="298" width="44" height="20" rx="3" fill="#2563eb" opacity="0.75"/>
<text x="250.29844097995544" y="312" font-size="10" fill="#2563eb">117 (11%)</text>
<text x="192" y="336" text-anchor="end" font-size="11" fill="#374151">Feedback Networks</text>
<rect x="200" y="322" width="39" height="20" rx="3" fill="#2563eb" opacity="0.75"/>
<text x="244.9977728285078" y="336" font-size="10" fill="#2563eb">103 (10%)</text>
<text x="192" y="360" text-anchor="end" font-size="11" fill="#374151">Memory Interfaces</text>
<rect x="200" y="346" width="38" height="20" rx="3" fill="#2563eb" opacity="0.75"/>
<text x="243.8619153674833" y="360" font-size="10" fill="#2563eb">100 (10%)</text>
<text x="192" y="384" text-anchor="end" font-size="11" fill="#374151">Addressable Led Chains</text>
<rect x="200" y="370" width="31" height="20" rx="3" fill="#2563eb" opacity="0.75"/>
<text x="237.42538975501114" y="384" font-size="10" fill="#2563eb">83 (8%)</text>
<text x="192" y="408" text-anchor="end" font-size="11" fill="#374151">Rf Matching</text>
<rect x="200" y="394" width="22" height="20" rx="3" fill="#2563eb" opacity="0.75"/>
<text x="227.9599109131403" y="408" font-size="10" fill="#2563eb">58 (6%)</text>
</svg>
