<svg xmlns="http://www.w3.org/2000/svg" viewBox="0 0 600 420" width="600" height="420" style="font-family: -apple-system, BlinkMacSystemFont, 'Segoe UI', Helvetica, Arial, sans-serif; background: #ffffff;">
<title>Signal Detector Coverage</title>
<text x="300" y="24" text-anchor="middle" font-size="16" font-weight="bold" fill="#1e293b">Signal Detector Coverage</text>
<text x="300" y="42" text-anchor="middle" font-size="11" fill="#9ca3af">repos with at least one detection (of 1,035 total)</text>
<text x="192" y="72" text-anchor="end" font-size="11" fill="#374151">Design Observations</text>
<rect x="200" y="58" width="340" height="20" rx="3" fill="#2563eb" opacity="0.75"/>
<text x="546.0" y="72" font-size="10" fill="#2563eb">897 (87%)</text>
<text x="192" y="96" text-anchor="end" font-size="11" fill="#374151">Decoupling Analysis</text>
<rect x="200" y="82" width="271" height="20" rx="3" fill="#2563eb" opacity="0.75"/>
<text x="477.3935340022296" y="96" font-size="10" fill="#2563eb">716 (69%)</text>
<text x="192" y="120" text-anchor="end" font-size="11" fill="#374151">Power Regulators</text>
<rect x="200" y="106" width="210" height="20" rx="3" fill="#2563eb" opacity="0.75"/>
<text x="415.6098104793757" y="120" font-size="10" fill="#2563eb">553 (53%)</text>
<text x="192" y="144" text-anchor="end" font-size="11" fill="#374151">Rc Filters</text>
<rect x="200" y="130" width="184" height="20" rx="3" fill="#2563eb" opacity="0.75"/>
<text x="390.2140468227425" y="144" font-size="10" fill="#2563eb">486 (47%)</text>
<text x="192" y="168" text-anchor="end" font-size="11" fill="#374151">Transistor Circuits</text>
<rect x="200" y="154" width="153" height="20" rx="3" fill="#2563eb" opacity="0.75"/>
<text x="358.75362318840575" y="168" font-size="10" fill="#2563eb">403 (39%)</text>
<text x="192" y="192" text-anchor="end" font-size="11" fill="#374151">Voltage Dividers</text>
<rect x="200" y="178" width="140" height="20" rx="3" fill="#2563eb" opacity="0.75"/>
<text x="346.2452619843924" y="192" font-size="10" fill="#2563eb">370 (36%)</text>
<text x="192" y="216" text-anchor="end" font-size="11" fill="#374151">Protection Devices</text>
<rect x="200" y="202" width="135" height="20" rx="3" fill="#2563eb" opacity="0.75"/>
<text x="340.93868450390187" y="216" font-size="10" fill="#2563eb">356 (34%)</text>
<text x="192" y="240" text-anchor="end" font-size="11" fill="#374151">Crystal Circuits</text>
<rect x="200" y="226" width="135" height="20" rx="3" fill="#2563eb" opacity="0.75"/>
<text x="340.55964325529544" y="240" font-size="10" fill="#2563eb">355 (34%)</text>
<text x="192" y="264" text-anchor="end" font-size="11" fill="#374151">Lc Filters</text>
<rect x="200" y="250" width="67" height="20" rx="3" fill="#2563eb" opacity="0.75"/>
<text x="272.711259754738" y="264" font-size="10" fill="#2563eb">176 (17%)</text>
<text x="192" y="288" text-anchor="end" font-size="11" fill="#374151">Opamp Circuits</text>
<rect x="200" y="274" width="46" height="20" rx="3" fill="#2563eb" opacity="0.75"/>
<text x="252.24303232998886" y="288" font-size="10" fill="#2563eb">122 (12%)</text>
<text x="192" y="312" text-anchor="end" font-size="11" fill="#374151">Key Matrices</text>
<rect x="200" y="298" width="44" height="20" rx="3" fill="#2563eb" opacity="0.75"/>
<text x="250.34782608695653" y="312" font-size="10" fill="#2563eb">117 (11%)</text>
<text x="192" y="336" text-anchor="end" font-size="11" fill="#374151">Memory Interfaces</text>
<rect x="200" y="322" width="38" height="20" rx="3" fill="#2563eb" opacity="0.75"/>
<text x="243.9041248606466" y="336" font-size="10" fill="#2563eb">100 (10%)</text>
<text x="192" y="360" text-anchor="end" font-size="11" fill="#374151">Feedback Networks</text>
<rect x="200" y="346" width="38" height="20" rx="3" fill="#2563eb" opacity="0.75"/>
<text x="243.9041248606466" y="360" font-size="10" fill="#2563eb">100 (10%)</text>
<text x="192" y="384" text-anchor="end" font-size="11" fill="#374151">Addressable Led Chains</text>
<rect x="200" y="370" width="31" height="20" rx="3" fill="#2563eb" opacity="0.75"/>
<text x="237.46042363433668" y="384" font-size="10" fill="#2563eb">83 (8%)</text>
<text x="192" y="408" text-anchor="end" font-size="11" fill="#374151">Rf Matching</text>
<rect x="200" y="394" width="22" height="20" rx="3" fill="#2563eb" opacity="0.75"/>
<text x="227.98439241917504" y="408" font-size="10" fill="#2563eb">58 (6%)</text>
</svg>
