<svg xmlns="http://www.w3.org/2000/svg" viewBox="0 0 400 300" width="400" height="300" style="font-family: -apple-system, BlinkMacSystemFont, 'Segoe UI', Helvetica, Arial, sans-serif; background: #ffffff;">
<title>SPICE Simulation Status</title>
<text x="160" y="24" text-anchor="middle" font-size="16" font-weight="bold" fill="#1e293b">SPICE Simulation Status</text>
<path d="M 160.0 50.0 A 100 100 0 1 1 124.1 56.7 L 138.4 94.0 A 60 60 0 1 0 160.0 90.0 Z" fill="#16a34a" opacity="0.85"/>
<path d="M 124.1 56.7 A 100 100 0 0 1 140.9 51.8 L 148.6 91.1 A 60 60 0 0 0 138.4 94.0 Z" fill="#d97706" opacity="0.85"/>
<path d="M 140.9 51.8 A 100 100 0 0 1 141.2 51.8 L 148.7 91.1 A 60 60 0 0 0 148.6 91.1 Z" fill="#dc2626" opacity="0.85"/>
<path d="M 141.2 51.8 A 100 100 0 0 1 160.0 50.0 L 160.0 90.0 A 60 60 0 0 0 148.7 91.1 Z" fill="#6b7280" opacity="0.85"/>
<text x="160" y="146" text-anchor="middle" font-size="20" font-weight="bold" fill="#1e293b">30,646</text>
<text x="160" y="164" text-anchor="middle" font-size="11" fill="#6b7280">simulations</text>
<rect x="290" y="72" width="12" height="12" rx="2" fill="#16a34a" opacity="0.85"/>
<text x="308" y="82" font-size="12" fill="#374151">Pass</text>
<text x="308" y="96" font-size="10" fill="#9ca3af">28,853 (94.1%)</text>
<rect x="290" y="96" width="12" height="12" rx="2" fill="#d97706" opacity="0.85"/>
<text x="308" y="106" font-size="12" fill="#374151">Warn</text>
<text x="308" y="120" font-size="10" fill="#9ca3af">857 (2.8%)</text>
<rect x="290" y="120" width="12" height="12" rx="2" fill="#dc2626" opacity="0.85"/>
<text x="308" y="130" font-size="12" fill="#374151">Fail</text>
<text x="308" y="144" font-size="10" fill="#9ca3af">14 (0.0%)</text>
<rect x="290" y="144" width="12" height="12" rx="2" fill="#6b7280" opacity="0.85"/>
<text x="308" y="154" font-size="12" fill="#374151">Skip</text>
<text x="308" y="168" font-size="10" fill="#9ca3af">922 (3.0%)</text>
</svg>
