<svg xmlns="http://www.w3.org/2000/svg" viewBox="0 0 700 512" width="700" height="512" style="font-family: -apple-system, BlinkMacSystemFont, 'Segoe UI', Helvetica, Arial, sans-serif; background: #ffffff;">
<title>SPICE Coverage by Type</title>
<text x="350" y="24" text-anchor="middle" font-size="16" font-weight="bold" fill="#1e293b">SPICE Simulation Coverage by Type</text>
<text x="142" y="55" text-anchor="end" font-size="11" fill="#374151">rc_filter</text>
<rect x="150" y="40" width="470.0" height="22" rx="3" fill="#2563eb" opacity="0.8"/>
<text x="626.0" y="55" font-size="11" fill="#6b7280">7,820</text>
<text x="142" y="81" text-anchor="end" font-size="11" fill="#374151">decoupling</text>
<rect x="150" y="66" width="438.5" height="22" rx="3" fill="#16a34a" opacity="0.8"/>
<text x="594.5063938618925" y="81" font-size="11" fill="#6b7280">7,296</text>
<text x="142" y="107" text-anchor="end" font-size="11" fill="#374151">transistor_circuit</text>
<rect x="150" y="92" width="297.9" height="22" rx="3" fill="#d97706" opacity="0.8"/>
<text x="453.86700767263426" y="107" font-size="11" fill="#6b7280">4,956</text>
<text x="142" y="133" text-anchor="end" font-size="11" fill="#374151">voltage_divider</text>
<rect x="150" y="118" width="193.0" height="22" rx="3" fill="#9333ea" opacity="0.8"/>
<text x="349.0485933503836" y="133" font-size="11" fill="#6b7280">3,212</text>
<text x="142" y="159" text-anchor="end" font-size="11" fill="#374151">lc_filter</text>
<rect x="150" y="144" width="96.5" height="22" rx="3" fill="#0891b2" opacity="0.8"/>
<text x="252.46419437340154" y="159" font-size="11" fill="#6b7280">1,605</text>
<text x="142" y="185" text-anchor="end" font-size="11" fill="#374151">inrush</text>
<rect x="150" y="170" width="73.3" height="22" rx="3" fill="#dc2626" opacity="0.8"/>
<text x="229.26470588235293" y="185" font-size="11" fill="#6b7280">1,219</text>
<text x="142" y="211" text-anchor="end" font-size="11" fill="#374151">protection_device</text>
<rect x="150" y="196" width="66.5" height="22" rx="3" fill="#4f46e5" opacity="0.8"/>
<text x="222.53324808184144" y="211" font-size="11" fill="#6b7280">1,107</text>
<text x="142" y="237" text-anchor="end" font-size="11" fill="#374151">opamp_circuit</text>
<rect x="150" y="222" width="65.2" height="22" rx="3" fill="#ea580c" opacity="0.8"/>
<text x="221.21099744245524" y="237" font-size="11" fill="#6b7280">1,085</text>
<text x="142" y="263" text-anchor="end" font-size="11" fill="#374151">crystal_circuit</text>
<rect x="150" y="248" width="32.9" height="22" rx="3" fill="#0d9488" opacity="0.8"/>
<text x="188.8759590792839" y="263" font-size="11" fill="#6b7280">547</text>
<text x="142" y="289" text-anchor="end" font-size="11" fill="#374151">current_sense</text>
<rect x="150" y="274" width="31.4" height="22" rx="3" fill="#db2777" opacity="0.8"/>
<text x="187.43350383631713" y="289" font-size="11" fill="#6b7280">523</text>
<text x="142" y="315" text-anchor="end" font-size="11" fill="#374151">regulator_feedback</text>
<rect x="150" y="300" width="23.2" height="22" rx="3" fill="#475569" opacity="0.8"/>
<text x="179.19948849104858" y="315" font-size="11" fill="#6b7280">386</text>
<text x="142" y="341" text-anchor="end" font-size="11" fill="#374151">feedback_network</text>
<rect x="150" y="326" width="22.5" height="22" rx="3" fill="#6b7280" opacity="0.8"/>
<text x="178.5383631713555" y="341" font-size="11" fill="#6b7280">375</text>
<text x="142" y="367" text-anchor="end" font-size="11" fill="#374151">rf_matching</text>
<rect x="150" y="352" width="17.8" height="22" rx="3" fill="#2563eb" opacity="0.8"/>
<text x="173.7902813299233" y="367" font-size="11" fill="#6b7280">296</text>
<text x="142" y="393" text-anchor="end" font-size="11" fill="#374151">rf_chain</text>
<rect x="150" y="378" width="5.6" height="22" rx="3" fill="#16a34a" opacity="0.8"/>
<text x="161.64961636828644" y="393" font-size="11" fill="#6b7280">94</text>
<text x="142" y="419" text-anchor="end" font-size="11" fill="#374151">bridge_circuit</text>
<rect x="150" y="404" width="5.6" height="22" rx="3" fill="#d97706" opacity="0.8"/>
<text x="161.58951406649615" y="419" font-size="11" fill="#6b7280">93</text>
<text x="142" y="445" text-anchor="end" font-size="11" fill="#374151">snubber_circuit</text>
<rect x="150" y="430" width="1.6" height="22" rx="3" fill="#9333ea" opacity="0.8"/>
<text x="157.56265984654732" y="445" font-size="11" fill="#6b7280">26</text>
<text x="142" y="471" text-anchor="end" font-size="11" fill="#374151">bms_balance</text>
<rect x="150" y="456" width="1.0" height="22" rx="3" fill="#0891b2" opacity="0.8"/>
<text x="157" y="471" font-size="11" fill="#6b7280">6</text>
</svg>
